<svg fill="none" height="37" viewBox="0 0 141 37" width="141" xmlns="http://www.w3.org/2000/svg"><path clip-rule="evenodd" d="m5.31487 26.315h-5.31487v-26.315h5.31487v11.7626l9.49893-11.7626h6.9357l-11.4213 13.1952 11.4213 13.1198h-6.898l-9.53663-11.6872zm30.14223-20.88612h5.3149v20.88612h-5.3149v-3.1669c-1.3318 2.2872-3.5055 3.4308-6.521 3.4308-2.3622 0-4.2972-.7792-5.8049-2.3375-1.5078-1.5834-2.2617-3.77-2.2617-6.5599v-12.25262h5.2772v11.49862c0 1.6337.4146 2.8904 1.2439 3.7701s1.9601 1.3195 3.3925 1.3195 2.5632-.4398 3.3924-1.3195c.8544-.8797 1.2816-2.1364 1.2816-3.7701zm13.8282 3.12914v-3.12914h-5.3149v20.88612h5.3149v-11.5364c0-1.6337.4146-2.8778 1.2439-3.7323.8544-.8797 1.9978-1.31956 3.4302-1.31956 1.4323 0 2.5631.43986 3.3924 1.31956.8293.8545 1.2439 2.0986 1.2439 3.7323v11.5364h5.2772v-11.5364c0-1.6337.4146-2.8778 1.2439-3.7323.8544-.8797 1.9978-1.31956 3.4302-1.31956 1.4323 0 2.5632.43986 3.3924 1.31956.8293.8545 1.2439 2.0986 1.2439 3.7323v11.5364h5.2772v-12.2904c0-2.815-.7664-5.00161-2.2993-6.5599-1.5078-1.55828-3.5056-2.33743-5.9934-2.33743-1.5831 0-3.0155.37701-4.2971 1.13102-1.2565.75401-2.2491 1.78449-2.9778 3.09144-.6785-1.35722-1.646-2.40027-2.9025-3.12914-1.2313-.72888-2.6386-1.09332-4.2217-1.09332-2.9904 0-5.1516 1.14358-6.4834 3.43075zm41.0704 13.57218c1.4826 0 2.7516-.5404 3.8071-1.6211 1.0805-1.1059 1.6208-2.6516 1.6208-4.6372 0-2.0107-.5277-3.5564-1.5832-4.6371-1.0554-1.0808-2.337-1.62117-3.8447-1.62117-1.4827 0-2.7392.54037-3.7695 1.62117-1.0303 1.0807-1.5454 2.6264-1.5454 4.6371s.5151 3.5564 1.5454 4.6372c1.0303 1.0807 2.2868 1.6211 3.7695 1.6211zm-7.6519 1.508c-2.0355-1.9855-3.0533-4.5869-3.0533-7.804s1.0303-5.8059 3.0909-7.76629c2.0607-1.96043 4.6113-2.94064 7.6519-2.94064 3.0658 0 5.629.98021 7.6896 2.94064 2.0611 1.96039 3.0911 4.54919 3.0911 7.76629s-1.043 5.8185-3.1288 7.804c-2.0606 1.9856-4.6238 2.9784-7.6895 2.9784-3.0658 0-5.6165-.9928-7.6519-2.9784zm25.9162-18.20932h-5.315v24.50532c0 .6535-.164 1.1185-.49 1.3949-.327.3016-.892.4524-1.697.4524h-1.5073v4.4864h2.3373c2.136 0 3.782-.4901 4.938-1.4703s1.734-2.6013 1.734-4.8634zm3.581 20.88612v-20.88612h5.315v20.88612zm14.211-17.75698v-3.12914h-5.314v20.88612h5.314v-11.5364c0-1.6337.415-2.8778 1.244-3.7323.855-.8797 1.998-1.31956 3.43-1.31956 1.433 0 2.564.43986 3.393 1.31956.829.8545 1.244 2.0986 1.244 3.7323v11.5364h5.277v-12.2904c0-2.7898-.754-4.96391-2.262-6.5222-1.507-1.58342-3.455-2.37513-5.842-2.37513-2.991 0-5.152 1.14358-6.484 3.43075zm-23.263-4.82673h14.419v-3.604863l-14.419-.000002z" fill="#213a45" fill-rule="evenodd"/></svg>