<svg enable-background="new 0 0 807 260" viewBox="0 0 807 260" xmlns="http://www.w3.org/2000/svg"><g fill="#213a45"><path d="m290.8 63.6c-25.3 31.6-53.2 60.7-82.9 86.3-21.6 18.6-38 30.2-56.6 40.2-23.9 12.7-46.3 19.9-68.3 21.8-11.7 1-21.2.2-30.6-2.5l-.4-.1c-7.1-2.1-13.9-4-20.2-9.9-11.8-10.9-13.5-26.6-13.8-31.2-.1-3.7-.1-13.4 5.1-23.7 6.2-12.4 15.9-18.2 21.2-21.3 6.6-3.9 13.8-6.6 21.4-7.7l3.1-.5 2.1-2.4c8.4-9.5 17.9-17.7 28.4-24.4 7.1-4.5 23.6-15.3 47-18.5 24-3.3 44.3 2.4 57.1 7.8l7-16.5c-14.9-6.3-38.6-13-66.5-9.1-27.2 3.9-46.1 16-54.1 21.2-10.9 7.1-21.1 15.6-30 25.3-8.7 1.8-17 4.9-24.6 9.5-5.8 3.5-19.5 11.6-28.1 28.7-6.9 13.4-7.3 26.1-7 32.4.4 8 3.1 28.4 19.5 43.5 9.5 8.6 19.4 11.5 27.4 13.8l.4.1c8.4 2.5 17 3.6 26.4 3.6 3.5 0 7.1-.1 10.9-.5 24.2-2.1 49.5-10.1 75.3-23.8 19.9-10.6 37.2-22.9 59.8-42.4 10.8-9.3 21.3-19.1 31.6-29.2 1.6.5 3.1 1.2 4.5 1.9 8.9 4.4 15.9 11.5 19.7 20 1.4 3.2 5.7 13 2.4 24-3.1 10.3-10.9 15.9-14.7 18.6-10.4 7.4-24.8 9.4-42.7 5.9-14.7-2.8-26.1-8.3-27.4-9l-7.9 16c3.6 1.8 26.4 12.5 51.2 12.5 12.6 0 25.7-2.8 37.1-10.8 4.5-3.2 16.7-11.8 21.5-28.1 3.4-11.5 2.4-23.7-3.1-36.3-5.3-12.1-14.9-22-27.1-28.4 14-14.6 27.4-29.8 40.2-45.9z"/><path d="m224.3 93.9c-9.6-4.8-20.1-8-30.7-9.2-11.2-1.3-22.3-.5-33.3 2.3l4.5 17.3c8.9-2.2 17.9-2.9 26.8-1.9 6.4.7 12.7 2.3 18.8 4.8-20.4 18.7-41.5 34.2-61.3 44.7-10.6 5.7-21.5 10.7-32.7 15l6.3 16.7c11.8-4.5 23.6-9.9 34.8-15.9 21.1-11.4 43.7-27.9 65.3-47.8 32.2-29.5 63.3-67.7 90.4-110.4l-15-9.5c-22.3 35.4-47.7 67.5-73.9 93.9zm-9.9 147.9h-122.1v17.9h122.1z"/><path d="m463.2 171.1c0 5.4-1.4 9.5-4.2 12.4-2.7 2.9-6.4 4.3-11 4.3s-8.3-1.4-11-4.3-4-7-4-12.4v-37.7h-17.2v40.2c0 9.2 2.5 16.3 7.4 21.5 4.9 5.1 11.2 7.7 18.9 7.7 9.8 0 16.9-3.7 21.2-11.2v10.4h17.3v-68.5h-17.3z"/><path d="m418.6 115.5h-22.6l-30.9 38.6v-38.6h-17.3v86.3h17.3v-38.3l31 38.3h22.5l-37.1-43zm248.3 26.5c-6.7-6.4-15-9.7-25-9.7-9.9 0-18.2 3.2-24.9 9.7-6.7 6.4-10 14.9-10 25.5s3.3 19.1 9.9 25.6 14.9 9.8 24.9 9.8 18.3-3.3 25-9.8c6.8-6.5 10.2-15 10.2-25.6-.1-10.6-3.4-19.1-10.1-25.5zm-12.8 40.8c-3.4 3.6-7.6 5.3-12.4 5.3s-8.9-1.8-12.3-5.3c-3.3-3.6-5.1-8.6-5.1-15.2s1.7-11.7 5.1-15.2c3.4-3.6 7.4-5.3 12.3-5.3s9.1 1.8 12.5 5.3c3.4 3.6 5.1 8.6 5.1 15.2.1 6.5-1.7 11.6-5.2 15.2zm145-42.6c-4.9-5.2-11.2-7.8-19-7.8-9.8 0-16.7 3.7-21.1 11.2v-10.3h-17.3v68.5h17.3v-37.8c0-5.4 1.3-9.5 4-12.2 2.8-2.9 6.5-4.3 11.2-4.3s8.3 1.4 11 4.3c2.7 2.8 4 6.8 4 12.2v37.8h17.2v-40.3c0-9.1-2.3-16.2-7.3-21.3zm-223-7.9c-5.1 0-9.8 1.3-14 3.7-4.1 2.5-7.3 5.9-9.7 10.1-2.2-4.5-5.4-7.9-9.5-10.3-4-2.4-8.6-3.6-13.7-3.6-9.8 0-16.7 3.7-21.1 11.2v-10.3h-17.3v68.5h17.3v-37.6c0-5.4 1.3-9.5 4-12.2 2.8-2.9 6.5-4.3 11.2-4.3s8.3 1.4 11 4.3c2.7 2.8 4 6.8 4 12.2v37.8h17.2v-37.8c0-5.4 1.3-9.5 4-12.2 2.8-2.9 6.5-4.3 11.2-4.3s8.3 1.4 11 4.3c2.7 2.8 4 6.8 4 12.2v37.8h17.3v-40.3c0-9.2-2.5-16.4-7.4-21.5-5-5-11.4-7.7-19.5-7.7zm154.2-16.3h-46.9v11.8h46.9zm-.2 17.4h-17.3v68.5h17.3zm-46.3 80.3c0 2.2-.5 3.6-1.6 4.5-1 1-2.9 1.5-5.5 1.5h-4.9v14.7h7.6c6.9 0 12.3-1.6 16.1-4.8s5.7-8.6 5.7-15.9v-80.3h-17.3z"/></g></svg>